<?xml version="1.0" standalone="no"?>
<!DOCTYPE svg PUBLIC "-//W3C//DTD SVG 20010904//EN"
 "http://www.w3.org/TR/2001/REC-SVG-20010904/DTD/svg10.dtd">
<svg version="1.0" xmlns="http://www.w3.org/2000/svg"
 width="512.000000pt" height="512.000000pt" viewBox="0 0 512.000000 512.000000"
 preserveAspectRatio="xMidYMid meet">

<g transform="translate(0.000000,512.000000) scale(0.100000,-0.100000)"
fill="#000000" stroke="none">
<path d="M557 3505 c-82 -28 -126 -100 -127 -201 0 -82 30 -139 95 -179 l48
-30 1987 0 1987 0 48 30 c65 40 95 97 95 179 -1 104 -53 182 -138 206 -25 7
-678 10 -1997 10 -1634 -1 -1966 -3 -1998 -15z"/>
<path d="M582 2020 c-94 -22 -152 -101 -152 -206 1 -102 53 -180 138 -204 52
-14 3932 -14 3984 0 85 24 137 102 138 206 0 82 -30 139 -95 179 l-48 30
-1966 2 c-1081 0 -1981 -2 -1999 -7z"/>
</g>
</svg>
